<?xml version="1.0" encoding="UTF-8" standalone="no"?>
<!-- Created with Inkscape (http://www.inkscape.org/) -->

<svg
   xmlns:dc="http://purl.org/dc/elements/1.1/"
   xmlns:cc="http://creativecommons.org/ns#"
   xmlns:rdf="http://www.w3.org/1999/02/22-rdf-syntax-ns#"
   xmlns:svg="http://www.w3.org/2000/svg"
   xmlns="http://www.w3.org/2000/svg"
   xmlns:sodipodi="http://sodipodi.sourceforge.net/DTD/sodipodi-0.dtd"
   xmlns:inkscape="http://www.inkscape.org/namespaces/inkscape"
   width="700"
   height="1132"
   viewBox="0 0 185.20833 299.50834"
   version="1.1"
   id="svg8"
   inkscape:version="0.92.5 (2060ec1f9f, 2020-04-08)"
   sodipodi:docname="2022-01-17.svg">
  <defs
     id="defs2" />
  <sodipodi:namedview
     id="base"
     pagecolor="#ffffff"
     bordercolor="#666666"
     borderopacity="1.0"
     inkscape:pageopacity="0.0"
     inkscape:pageshadow="2"
     inkscape:zoom="0.71"
     inkscape:cx="298.0973"
     inkscape:cy="572.04719"
     inkscape:document-units="mm"
     inkscape:current-layer="layer1"
     showgrid="false"
     units="px"
     inkscape:window-width="1920"
     inkscape:window-height="1200"
     inkscape:window-x="0"
     inkscape:window-y="0"
     inkscape:window-maximized="0">
    <inkscape:grid
       dotted="true"
       id="grid4518"
       type="xygrid" />
  </sodipodi:namedview>
  <metadata
     id="metadata5">
    <rdf:RDF>
      <cc:Work
         rdf:about="">
        <dc:format>image/svg+xml</dc:format>
        <dc:type
           rdf:resource="http://purl.org/dc/dcmitype/StillImage" />
        <dc:title></dc:title>
      </cc:Work>
    </rdf:RDF>
  </metadata>
  <g
     inkscape:label="Layer 1"
     inkscape:groupmode="layer"
     id="layer1"
     transform="translate(0,2.50835)">
    <rect
       style="fill:#eaa083;fill-rule:evenodd;stroke-width:0.56407923;fill-opacity:1"
       id="rect4520"
       width="63.496769"
       height="140.30934"
       x="7.4835467"
       y="-4.6250167"
       transform="matrix(0.70710678,0.70710678,0,1,0,0)" />
    <rect
       style="fill:#eaa083;fill-rule:evenodd;stroke-width:0.31464437;fill-opacity:1"
       id="rect4522"
       width="79.375"
       height="14.967093"
       x="15.20835"
       y="0.94278556"
       transform="matrix(1,0,0.70710678,0.70710678,0,0)" />
    <rect
       style="fill:#eaa083;fill-rule:evenodd;stroke-width:0.31464437;fill-opacity:1"
       id="rect4522-4"
       width="79.375"
       height="14.967093"
       x="15.20835"
       y="23.393433"
       transform="matrix(1,0,0.70710678,0.70710678,0,0)" />
    <rect
       style="fill:#eaa083;fill-rule:evenodd;stroke-width:0.31464437;fill-opacity:1"
       id="rect4522-2"
       width="79.375"
       height="14.967093"
       x="15.208346"
       y="45.844067"
       transform="matrix(1,0,0.70710678,0.70710678,0,0)" />
    <rect
       style="fill:#eaa083;fill-rule:evenodd;stroke-width:0.26458332;fill-opacity:1"
       id="rect4551"
       width="79.375"
       height="10.583333"
       x="58.208332"
       y="48.291649" />
    <rect
       style="fill:#eaa083;fill-rule:evenodd;stroke-width:0.26458332;fill-opacity:1"
       id="rect4551-5"
       width="79.375"
       height="10.583333"
       x="58.208332"
       y="64.166649" />
    <rect
       style="fill:#eaa083;fill-rule:evenodd;stroke-width:0.26458332;fill-opacity:1"
       id="rect4551-2"
       width="79.375"
       height="10.583333"
       x="58.208328"
       y="143.54166" />
    <rect
       style="fill:#eaa083;fill-rule:evenodd;stroke-width:0.26458332;fill-opacity:1"
       id="rect4551-2-43"
       width="79.375"
       height="10.583333"
       x="58.208332"
       y="159.41666" />
    <rect
       style="fill:#eaa083;fill-rule:evenodd;stroke-width:0.26458332;fill-opacity:1"
       id="rect4551-2-8"
       width="79.375"
       height="10.583333"
       x="58.208332"
       y="127.66665" />
    <rect
       style="fill:#eaa083;fill-rule:evenodd;stroke-width:0.26458332;fill-opacity:1"
       id="rect4551-2-6"
       width="79.375"
       height="10.583333"
       x="58.208336"
       y="111.79165" />
    <rect
       style="fill:#eaa083;fill-rule:evenodd;stroke-width:0.26458332;fill-opacity:1"
       id="rect4551-2-0"
       width="79.375"
       height="10.583333"
       x="58.208336"
       y="95.916649" />
    <rect
       style="fill:#eaa083;fill-rule:evenodd;stroke-width:0.26458332;fill-opacity:1"
       id="rect4551-2-89"
       width="79.375"
       height="10.583333"
       x="58.208332"
       y="80.041649" />
    <rect
       style="fill:#eaa083;fill-rule:evenodd;stroke-width:0.26458332;fill-opacity:1"
       id="rect4551-2-2"
       width="79.375"
       height="10.583333"
       x="58.20834"
       y="175.29166" />
    <path
       inkscape:connector-curvature="0"
       id="path4644"
       d="M105.83333 0.66664996C105.83333 0.66664996 111.525114672 6.3584347885 112.568144825 7.40146497007C113.051000579 7.88432073793 118.670914606 13.504234919 119.302584151 14.1359044822C119.825393168 14.6587135137 125.441990328 20.2753108282 126.03713863 20.8704591465C126.57745251 21.410773042 132.193370888 27.0266915735 132.772228333 27.6055490348C133.323389254 28.1567099706 138.938269371 33.771590243 139.506620943 34.3399418302C140.066448997 34.8997698994 145.681293509 40.5146145663 146.241124328 41.0744454006C146.809506283 41.6428273707 152.424710811 47.258032053 152.975905726 47.8092269837C153.554750179 48.3880714524 159.170578793 54.0039002224 159.710888143 54.5442095868C160.306089333 55.139410794 165.923208467 60.7565300825 166.446067999 61.2793896281C167.077843606 61.9111652525 172.698665297 67.5319870977 173.181592751 68.0149145651C174.224660169 69.0579820111 179.91666 74.749982 179.91666 74.749982C179.91666 74.749982 179.91666 66.8991421652 179.91666 65.4890538102C179.91666 64.817513069 179.91666 57.0865480713 179.91666 56.2291865753C179.91666 55.5001804517 179.91666 47.7743688594 179.91666 46.9688422357C179.91666 46.2118936527 179.91666 38.4880384887 179.91666 37.7090361729C179.91666 36.9300240586 179.91666 29.2060394295 179.91666 28.4490750848C179.91666 27.6434756782 179.91666 19.9169615673 179.91666 19.1878903414C179.91666 18.3304352922 179.91666 10.5987010651 179.91666 9.9271053189C179.91666 8.51708458641 179.91666 0.66664996 179.91666 0.66664996C179.91666 0.66664996 172.065820382 0.66664996 170.655732065 0.66664996C169.984191342 0.66664996 162.253226557 0.66664996 161.395865085 0.66664996C160.666858982 0.66664996 152.941047603 0.66664996 152.135521001 0.66664996C151.378572438 0.66664996 143.654717487 0.66664996 142.875715193 0.66664996C142.096703101 0.66664996 134.372718684 0.66664996 133.61575436 0.66664996C132.810154976 0.66664996 125.083641077 0.66664996 124.354569871 0.66664996C123.497114845 0.66664996 115.765380832 0.66664996 115.093785104 0.66664996C113.683764411 0.66664996 105.83333 0.66664996 105.83333 0.66664996"
       style="fill:#eaa083;stroke:none;stroke-width:0.26458332px;stroke-linecap:butt;stroke-linejoin:miter;stroke-opacity:1;fill-opacity:1" />
    <rect
       style="fill:#eaa083;fill-rule:evenodd;stroke-width:0.46737996;fill-opacity:1"
       id="rect4520-1"
       width="52.61161"
       height="116.25632"
       x="202.05576"
       y="-94.583351"
       transform="matrix(0.70710678,0.70710678,0,1,0,0)" />
    <path
       inkscape:connector-curvature="0"
       id="path4644-8"
       d="M148.16667 291.70834C148.16667 291.70834 142.441970524 285.983639854 141.362643969 284.904313174C140.881715007 284.423384156 135.207331735 278.749000219 134.559188697 278.100857106C134.038943998 277.580612346 128.367096312 271.908763998 127.755973309 271.297640923C127.21948988 270.761157432 121.548628257 265.090295145 120.952970173 264.494636992C120.407398495 263.94906525 114.736472514 258.278138606 114.149419389 257.691085413C113.597945274 257.139611233 107.927089175 251.468754472 107.345685603 250.887350832C106.789960167 250.331625331 101.119229651 244.660894151 100.541938585 244.083603018C99.9829108183 243.524575186 94.3124534767 237.854117182 93.7384155231 237.280079161C93.176553281 236.718216853 87.5055275094 231.047190419 86.9341464496 230.475809292C86.3698698113 229.911532588 80.699359694 224.241021808 80.1304607271 223.672122775C79.5639221077 223.105584089 73.8939619992 217.435623318 73.3274235319 216.869084784C72.7585912257 216.300252411 67.0887441175 210.630404641 66.5245330954 210.066193553C65.9531510758 209.494811466 60.2821146016 203.823774329 59.7202511818 203.261910844C59.1462049636 202.687864558 53.4756657178 197.01732465 52.916629876 196.458288743C52.339368674 195.881027474 46.6689246124 190.210582749 46.1132264243 189.654884496C45.5318643041 189.073522308 39.8613978273 183.403055167 39.3099598932 182.851617169C38.7228927322 182.26454994 33.051826543 176.593483088 32.5062409274 176.047897408C31.9104859417 175.452142353 26.238738014 169.780393763 25.7021751501 169.243830836C25.0909848148 168.632640429 19.4185682024 162.960223154 18.8982780736 162.439932964C18.2501950042 161.791849819 12.5763179577 156.117972109 12.09542912 155.637083215C11.0161431621 154.557797131 5.2916667 148.83332 5.2916667 148.83332C5.2916667 148.83332 5.2916667 156.863974712 5.2916667 158.358298643C5.2916667 159.035813881 5.2916667 166.981418725 5.2916667 167.882603874C5.2916667 168.615655366 5.2916667 176.557896107 5.2916667 177.407684178C5.2916667 178.163991367 5.2916667 186.104208366 5.2916667 186.931990763C5.2916667 187.701811884 5.2916667 195.642510002 5.2916667 196.457648432C5.2916667 197.2366266 5.2916667 205.176220019 5.2916667 205.982385178C5.2916667 206.768620941 5.2916667 214.707968446 5.2916667 215.507027611C5.2916667 216.299730957 5.2916667 224.239341078 5.2916667 225.032046132C5.2916667 225.831181215 5.2916667 233.771293949 5.2916667 234.557606124C5.2916667 235.363742376 5.2916667 243.303069338 5.2916667 244.082023456C5.2916667 244.897152689 5.2916667 252.837784166 5.2916667 253.607601353C5.2916667 254.435492378 5.2916667 262.376734651 5.2916667 263.133136895C5.2916667 263.982937474 5.2916667 271.92530933 5.2916667 272.658374456C5.2916667 273.559578443 5.2916667 281.505372441 5.2916667 282.182906449C5.2916667 283.677299106 5.2916667 291.70834 5.2916667 291.70834C5.2916667 291.70834 13.3223204732 291.70834 14.8166442295 291.70834C15.494159388 291.70834 23.4397633036 291.70834 24.3409483472 291.70834C25.0739997533 291.70834 33.0162395661 291.70834 33.8660275376 291.70834C34.6223346388 291.70834 42.5625507097 291.70834 43.3903330099 291.70834C44.1601540415 291.70834 52.1008512317 291.70834 52.9159895658 291.70834C53.6949676427 291.70834 61.6345601329 291.70834 62.4407251976 291.70834C63.2269608689 291.70834 71.1663074458 291.70834 71.9653665177 291.70834C72.7580697707 291.70834 80.6976789635 291.70834 81.490383925 291.70834C82.2895189146 291.70834 90.2296307216 291.70834 91.015942804 291.70834C91.8220789616 291.70834 99.7614049956 291.70834 100.540359023 291.70834C101.35548816 291.70834 109.29611871 291.70834 110.065935807 291.70834C110.893826735 291.70834 118.83506808 291.70834 119.591470235 291.70834C120.441270715 291.70834 128.383641643 291.70834 129.116706683 291.70834C130.017910565 291.70834 137.963703633 291.70834 138.641237562 291.70834C140.135630045 291.70834 148.16667 291.70834 148.16667 291.70834"
       style="fill:#eaa083;fill-opacity:1;stroke:none;stroke-width:0.51026785px;stroke-linecap:butt;stroke-linejoin:miter;stroke-opacity:1" />
    <rect
       style="fill:#eaa083;fill-rule:evenodd;stroke-width:0.31464437;fill-opacity:1"
       id="rect4522-3"
       width="79.375"
       height="14.967093"
       x="-132.95831"
       y="270.35046"
       transform="matrix(1,0,0.70710678,0.70710678,0,0)" />
    <rect
       style="fill:#eaa083;fill-rule:evenodd;stroke-width:0.31464437;fill-opacity:1"
       id="rect4522-42"
       width="79.375"
       height="14.967093"
       x="-132.95831"
       y="292.80112"
       transform="matrix(1,0,0.70710678,0.70710678,0,0)" />
    <rect
       style="fill:#eaa083;fill-rule:evenodd;stroke-width:0.31464437;fill-opacity:1"
       id="rect4522-24"
       width="79.375"
       height="14.967093"
       x="-132.95831"
       y="315.25174"
       transform="matrix(1,0,0.70710678,0.70710678,0,0)" />
    <path
       inkscape:connector-curvature="0"
       id="path4644-1"
       d="M105.83333 238.79165C105.83333 238.79165 111.44107319 244.399393191 112.448279239 245.406599239C112.927951236 245.886271236 118.450069535 251.408389535 119.062470653 252.020790653C119.583189355 252.541509355 125.101626651 258.059946651 125.677002857 258.635322857C126.21768046 259.17600046 131.734720305 264.693040306 132.291150576 265.249470576C132.847587846 265.805907845 138.364720167 271.323040168 138.905409029 271.863729029C139.480837222 272.439157223 144.999776317 277.958096317 145.52054152 278.47886152C146.133009461 279.091329462 151.655677212 284.613997212 152.135388497 285.093708497C153.142546245 286.100866244 158.75 291.70832 158.75 291.70832C158.75 291.70832 158.75 284.204959966 158.75 282.888493485C158.75 282.239252393 158.75 274.871645405 158.75 274.069459959C158.75 273.359986444 158.75 265.997754147 158.75 265.250066555C158.75 264.502371592 158.75 257.140062021 158.75 256.430580875C158.75 255.628298996 158.75 248.259899525 158.75 247.610604279C158.75 246.294257745 158.75 238.79165 158.75 238.79165C158.75 238.79165 151.246639966 238.79165 149.930173485 238.79165C149.280932393 238.79165 141.913325406 238.79165 141.111139959 238.79165C140.401666444 238.79165 133.039434147 238.79165 132.291746555 238.79165C131.544051592 238.79165 124.181742021 238.79165 123.472260875 238.79165C122.669978996 238.79165 115.301579525 238.79165 114.652284279 238.79165C113.335937745 238.79165 105.83333 238.79165 105.83333 238.79165"
       style="fill:#eaa083;fill-opacity:1;stroke:none;stroke-width:0.18898809px;stroke-linecap:butt;stroke-linejoin:miter;stroke-opacity:1" />
    <rect
       style="fill:#eaa083;fill-rule:evenodd;stroke-width:0.2898365;fill-opacity:1"
       id="rect4724"
       width="15.875"
       height="6.3499999"
       x="164.04167"
       y="238.79166" />
    <rect
       style="fill:#eaa083;fill-rule:evenodd;stroke-width:0.2898365;fill-opacity:1"
       id="rect4724-7"
       width="15.875"
       height="6.3499999"
       x="164.04167"
       y="250.43332" />
    <rect
       style="fill:#eaa083;fill-rule:evenodd;stroke-width:0.2898365;fill-opacity:1"
       id="rect4724-5"
       width="15.875"
       height="6.3499999"
       x="164.04167"
       y="262.07498" />
    <rect
       style="fill:#eaa083;fill-rule:evenodd;stroke-width:0.2898365;fill-opacity:1"
       id="rect4724-71"
       width="15.875"
       height="6.3499999"
       x="164.04167"
       y="273.71664" />
    <rect
       style="fill:#eaa083;fill-rule:evenodd;stroke-width:0.2898365;fill-opacity:1"
       id="rect4724-6"
       width="15.875"
       height="6.3499999"
       x="164.04167"
       y="285.35831" />
    <path
       sodipodi:nodetypes="ccccc"
       inkscape:connector-curvature="0"
       id="path4759"
       d="M142.875 169.99998C142.875 169.99998 142.875 176.084017561 142.875 177.05552906C142.875 177.62310787 142.875 183.543466377 142.875 184.11104617C142.875 185.082563916 142.875 191.16665 142.875 191.16665C142.875 191.16665 148.127350748 196.419002165 149.04887706 197.340528727C149.503345714 197.794997504 154.660669353 202.952322535 155.222199029 203.513852362C155.718830369 204.010483836 160.872391724 209.164046582 161.395772911 209.687427911C161.919159259 210.2108144 167.072774705 215.364431238 167.569411387 215.861068054C168.131008566 216.422665384 173.288886942 221.580545153 173.743393504 222.035051838C174.664835854 222.956494437 179.91666 228.20832 179.91666 228.20832C179.91666 228.20832 179.91666 222.124282439 179.91666 221.15277094C179.91666 220.58519213 179.91666 214.664833623 179.91666 214.09725383C179.91666 213.125736084 179.91666 207.04165 179.91666 207.04165C179.91666 207.04165 174.664309253 201.789297834 173.74278294 200.867771273C173.288314286 200.413302496 168.130990647 195.255977465 167.569460971 194.694447638C167.072829631 194.197816164 161.919268276 189.044253417 161.395887089 188.520872089C160.872500742 187.9974856 155.718885295 182.843868762 155.222248613 182.347231946C154.660651434 181.785634615 149.502773058 176.627754847 149.048266496 176.173248162C148.126824146 175.251805563 142.875 169.99998 142.875 169.99998"
       style="fill:#eaa083;fill-opacity:1;stroke:none;stroke-width:0.26458332px;stroke-linecap:butt;stroke-linejoin:miter;stroke-opacity:1" />
  </g>
</svg>
